<?xml version="1.0" encoding="UTF-8" standalone="no"?>
<svg width="2037px" height="640px" viewBox="0 0 2037 640" version="1.1" xmlns="http://www.w3.org/2000/svg" xmlns:xlink="http://www.w3.org/1999/xlink">
    <!-- Generator: Sketch 43.2 (39069) - http://www.bohemiancoding.com/sketch -->
    <title>logo copy 3</title>
    <desc>Created with Sketch.</desc>
    <defs>
        <linearGradient x1="50%" y1="0%" x2="50%" y2="100%" id="linearGradient-1">
            <stop stop-color="#616A74" offset="0%"></stop>
            <stop stop-color="#111111" offset="100%"></stop>
        </linearGradient>
        <polygon id="path-2" points="271.284314 420 413 0 298.817647 0 210.54902 286.769826"></polygon>
        <polygon id="path-3" points="271.284314 420 413 0 298.817647 0 210.54902 286.769826"></polygon>
    </defs>
    <g id="Page-1" stroke="none" stroke-width="1" fill="none" fill-rule="evenodd">
        <g id="logo-copy-3">
            <g id="Group-2" transform="translate(113.000000, 110.000000)">
                <g id="v">
                    <use fill="#616A74" xlink:href="#path-2"></use>
                    <use fill="url(#linearGradient-1)" xlink:href="#path-2"></use>
                    <use fill-opacity="0.123216712" fill="#FFFFFF" xlink:href="#path-2"></use>
                </g>
                <polygon id="v" fill="#FFFFFF" points="272 420 120.979104 -2.84217094e-14 0 -2.84217094e-14 143.713433 420"></polygon>
            </g>
            <g id="Group-2" transform="translate(113.000000, 110.000000)">
                <g id="v">
                    <use fill="#616A74" xlink:href="#path-3"></use>
                    <use fill="url(#linearGradient-1)" xlink:href="#path-3"></use>
                    <use fill-opacity="0.123216712" fill="#FFFFFF" xlink:href="#path-3"></use>
                </g>
                <polygon id="v" fill="#FFFFFF" points="272 420 120.979104 -2.84217094e-14 0 -2.84217094e-14 143.713433 420"></polygon>
            </g>
            <path d="M700.645,223.506 L735.875,223.506 L784.384,376.621 L784.926,376.621 L834.519,223.506 L868.936,223.506 L802.812,417 L765.143,417 L700.645,223.506 Z M884.654,223.506 L915.548,223.506 L915.548,252.774 L884.654,252.774 L884.654,223.506 Z M884.654,276.893 L915.548,276.893 L915.548,417 L884.654,417 L884.654,276.893 Z M949.965,223.506 L980.859,223.506 L980.859,295.05 L981.401,295.05 C983.569011,291.617316 986.188651,288.546014 989.26,285.836 C992.331349,283.125986 995.718815,280.822509 999.4225,278.9255 C1003.12619,277.028491 1007.01048,275.583172 1011.0755,274.5895 C1015.14052,273.595828 1019.16031,273.099 1023.135,273.099 C1034.15572,273.099 1043.77613,275.041147 1051.9965,278.9255 C1060.21687,282.809853 1067.03697,288.139466 1072.457,294.9145 C1077.87703,301.689534 1081.94199,309.593622 1084.652,318.627 C1087.36201,327.660378 1088.717,337.325949 1088.717,347.624 C1088.717,357.018714 1087.49751,366.142289 1085.0585,374.995 C1082.61949,383.847711 1078.91586,391.661466 1073.9475,398.4365 C1068.97914,405.211534 1062.70104,410.63148 1055.113,414.6965 C1047.52496,418.76152 1038.58205,420.794 1028.284,420.794 C1023.58664,420.794 1018.84419,420.477836 1014.0565,419.8455 C1009.26881,419.213164 1004.70702,417.993676 1000.371,416.187 C996.034978,414.380324 992.105518,412.031681 988.5825,409.141 C985.059482,406.250319 982.123678,402.456357 979.775,397.759 L979.233,397.759 L979.233,417 L949.965,417 L949.965,223.506 Z M1057.823,347.082 C1057.823,340.758635 1057.01001,334.61603 1055.384,328.654 C1053.75799,322.69197 1051.31902,317.407523 1048.067,312.8005 C1044.81498,308.193477 1040.75002,304.489847 1035.872,301.6895 C1030.99398,298.889153 1025.39336,297.489 1019.07,297.489 C1006.06193,297.489 996.260866,302.005621 989.6665,311.039 C983.072134,320.072379 979.775,332.086592 979.775,347.082 C979.775,354.128035 980.633158,360.677136 982.3495,366.7295 C984.065842,372.781864 986.640316,377.975978 990.073,382.312 C993.505684,386.648022 997.615809,390.080654 1002.4035,392.61 C1007.19119,395.139346 1012.74664,396.404 1019.07,396.404 C1026.11604,396.404 1032.07798,394.958681 1036.956,392.068 C1041.83402,389.177319 1045.85382,385.428523 1049.0155,380.8215 C1052.17718,376.214477 1054.43549,370.975196 1055.7905,365.1035 C1057.14551,359.231804 1057.823,353.224697 1057.823,347.082 Z M1210.938,334.616 C1210.57666,329.737976 1209.53784,325.040689 1207.8215,320.524 C1206.10516,316.007311 1203.75651,312.07785 1200.7755,308.7355 C1197.79449,305.39315 1194.18119,302.683177 1189.9355,300.6055 C1185.68981,298.527823 1180.94736,297.489 1175.708,297.489 C1170.28797,297.489 1165.36486,298.437491 1160.9385,300.3345 C1156.51214,302.231509 1152.71818,304.85115 1149.5565,308.1935 C1146.39482,311.53585 1143.86551,315.465311 1141.9685,319.982 C1140.07149,324.498689 1139.03267,329.37664 1138.852,334.616 L1210.938,334.616 Z M1138.852,354.941 C1138.852,360.361027 1139.61983,365.600308 1141.1555,370.659 C1142.69117,375.717692 1144.99465,380.143981 1148.066,383.938 C1151.13735,387.732019 1155.02164,390.758155 1159.719,393.0165 C1164.41636,395.274845 1170.01697,396.404 1176.521,396.404 C1185.55438,396.404 1192.82614,394.461853 1198.3365,390.5775 C1203.84686,386.693147 1207.95699,380.866706 1210.667,373.098 L1239.935,373.098 C1238.30899,380.686038 1235.50869,387.46097 1231.534,393.423 C1227.55931,399.38503 1222.77169,404.39848 1217.171,408.4635 C1211.57031,412.52852 1205.2922,415.599823 1198.3365,417.6775 C1191.3808,419.755177 1184.10904,420.794 1176.521,420.794 C1165.50028,420.794 1155.74438,418.987351 1147.253,415.374 C1138.76162,411.760649 1131.5802,406.702033 1125.7085,400.198 C1119.8368,393.693967 1115.41051,385.925378 1112.4295,376.892 C1109.44849,367.858622 1107.958,357.922054 1107.958,347.082 C1107.958,337.145284 1109.53882,327.705545 1112.7005,318.7625 C1115.86218,309.819455 1120.3788,301.960534 1126.2505,295.1855 C1132.1222,288.410466 1139.21329,283.035687 1147.524,279.061 C1155.83471,275.086313 1165.22928,273.099 1175.708,273.099 C1186.72872,273.099 1196.62012,275.402477 1205.3825,280.0095 C1214.14488,284.616523 1221.41664,290.713962 1227.198,298.302 C1232.97936,305.890038 1237.17982,314.607117 1239.7995,324.4535 C1242.41918,334.299883 1243.09667,344.462281 1241.832,354.941 L1138.852,354.941 Z M1397.386,417 L1368.118,417 L1368.118,398.03 L1367.576,398.03 C1363.42065,406.160041 1357.36837,411.986482 1349.419,415.5095 C1341.46963,419.032518 1333.06871,420.794 1324.216,420.794 C1313.19528,420.794 1303.57487,418.851853 1295.3545,414.9675 C1287.13413,411.083147 1280.31403,405.7987 1274.894,399.114 C1269.47397,392.4293 1265.40901,384.525212 1262.699,375.4015 C1259.98899,366.277788 1258.634,356.476719 1258.634,345.998 C1258.634,333.35127 1260.35032,322.421046 1263.783,313.207 C1267.21568,303.992954 1271.77747,296.40503 1277.4685,290.443 C1283.15953,284.48097 1289.66346,280.099847 1296.9805,277.2995 C1304.29754,274.499153 1311.74996,273.099 1319.338,273.099 C1323.67402,273.099 1328.10031,273.505496 1332.617,274.3185 C1337.13369,275.131504 1341.46965,276.441324 1345.625,278.248 C1349.78035,280.054676 1353.61948,282.358153 1357.1425,285.1585 C1360.66552,287.958847 1363.60132,291.255981 1365.95,295.05 L1366.492,295.05 L1366.492,223.506 L1397.386,223.506 L1397.386,417 Z M1289.528,348.437 C1289.528,354.39903 1290.29583,360.270638 1291.8315,366.052 C1293.36717,371.833362 1295.71582,376.982311 1298.8775,381.499 C1302.03918,386.015689 1306.05898,389.628986 1310.937,392.339 C1315.81502,395.049014 1321.5963,396.404 1328.281,396.404 C1335.14637,396.404 1341.06314,394.958681 1346.0315,392.068 C1350.99986,389.177319 1355.06482,385.383357 1358.2265,380.686 C1361.38818,375.988643 1363.73683,370.704196 1365.2725,364.8325 C1366.80817,358.960804 1367.576,352.953697 1367.576,346.811 C1367.576,331.273589 1364.0982,319.169043 1357.1425,310.497 C1350.1868,301.824957 1340.74706,297.489 1328.823,297.489 C1321.5963,297.489 1315.49886,298.979485 1310.5305,301.9605 C1305.56214,304.941515 1301.49718,308.825809 1298.3355,313.6135 C1295.17382,318.401191 1292.91551,323.821136 1291.5605,329.8735 C1290.20549,335.925864 1289.528,342.113635 1289.528,348.437 Z M1430.99,276.893 L1459.987,276.893 L1459.987,303.993 L1460.529,303.993 C1461.43234,300.198981 1463.19382,296.495351 1465.8135,292.882 C1468.43318,289.268649 1471.59481,285.971515 1475.2985,282.9905 C1479.00219,280.009485 1483.11231,277.615676 1487.629,275.809 C1492.14569,274.002324 1496.75264,273.099 1501.45,273.099 C1505.06335,273.099 1507.54749,273.189332 1508.9025,273.37 C1510.25751,273.550668 1511.65766,273.731332 1513.103,273.912 L1513.103,303.722 C1510.93499,303.360665 1508.72184,303.044501 1506.4635,302.7735 C1504.20516,302.502499 1501.99201,302.367 1499.824,302.367 C1494.58464,302.367 1489.66152,303.405823 1485.0545,305.4835 C1480.44748,307.561177 1476.42768,310.63248 1472.995,314.6975 C1469.56232,318.76252 1466.85234,323.77597 1464.865,329.738 C1462.87766,335.70003 1461.884,342.565294 1461.884,350.334 L1461.884,417 L1430.99,417 L1430.99,276.893 Z M1527.195,223.506 L1558.089,223.506 L1558.089,252.774 L1527.195,252.774 L1527.195,223.506 Z M1527.195,276.893 L1558.089,276.893 L1558.089,417 L1527.195,417 L1527.195,276.893 Z M1577.872,276.893 L1611.476,276.893 L1646.977,384.48 L1647.519,384.48 L1681.665,276.893 L1713.643,276.893 L1663.508,417 L1628.82,417 L1577.872,276.893 Z M1828.547,334.616 C1828.18566,329.737976 1827.14684,325.040689 1825.4305,320.524 C1823.71416,316.007311 1821.36551,312.07785 1818.3845,308.7355 C1815.40349,305.39315 1811.79019,302.683177 1807.5445,300.6055 C1803.29881,298.527823 1798.55636,297.489 1793.317,297.489 C1787.89697,297.489 1782.97386,298.437491 1778.5475,300.3345 C1774.12114,302.231509 1770.32718,304.85115 1767.1655,308.1935 C1764.00382,311.53585 1761.47451,315.465311 1759.5775,319.982 C1757.68049,324.498689 1756.64167,329.37664 1756.461,334.616 L1828.547,334.616 Z M1756.461,354.941 C1756.461,360.361027 1757.22883,365.600308 1758.7645,370.659 C1760.30017,375.717692 1762.60365,380.143981 1765.675,383.938 C1768.74635,387.732019 1772.63064,390.758155 1777.328,393.0165 C1782.02536,395.274845 1787.62597,396.404 1794.13,396.404 C1803.16338,396.404 1810.43514,394.461853 1815.9455,390.5775 C1821.45586,386.693147 1825.56599,380.866706 1828.276,373.098 L1857.544,373.098 C1855.91799,380.686038 1853.11769,387.46097 1849.143,393.423 C1845.16831,399.38503 1840.38069,404.39848 1834.78,408.4635 C1829.17931,412.52852 1822.9012,415.599823 1815.9455,417.6775 C1808.9898,419.755177 1801.71804,420.794 1794.13,420.794 C1783.10928,420.794 1773.35338,418.987351 1764.862,415.374 C1756.37062,411.760649 1749.1892,406.702033 1743.3175,400.198 C1737.4458,393.693967 1733.01951,385.925378 1730.0385,376.892 C1727.05749,367.858622 1725.567,357.922054 1725.567,347.082 C1725.567,337.145284 1727.14782,327.705545 1730.3095,318.7625 C1733.47118,309.819455 1737.9878,301.960534 1743.8595,295.1855 C1749.7312,288.410466 1756.82229,283.035687 1765.133,279.061 C1773.44371,275.086313 1782.83828,273.099 1793.317,273.099 C1804.33772,273.099 1814.22912,275.402477 1822.9915,280.0095 C1831.75388,284.616523 1839.02564,290.713962 1844.807,298.302 C1850.58836,305.890038 1854.78882,314.607117 1857.4085,324.4535 C1860.02818,334.299883 1860.70567,344.462281 1859.441,354.941 L1756.461,354.941 Z" id="Vibedrive" fill="#FFFFFF"></path>
        </g>
    </g>
</svg>